<svg width="29" height="17" viewBox="0 0 29 17" fill="none" xmlns="http://www.w3.org/2000/svg">
<path d="M1 7.5C0.723858 7.5 0.5 7.72386 0.5 8C0.5 8.27614 0.723858 8.5 1 8.5V7.5ZM23.3536 8.35355C23.5488 8.15829 23.5488 7.84171 23.3536 7.64645L20.1716 4.46447C19.9763 4.2692 19.6597 4.2692 19.4645 4.46447C19.2692 4.65973 19.2692 4.97631 19.4645 5.17157L22.2929 8L19.4645 10.8284C19.2692 11.0237 19.2692 11.3403 19.4645 11.5355C19.6597 11.7308 19.9763 11.7308 20.1716 11.5355L23.3536 8.35355ZM1 8.5H23V7.5H1V8.5Z" fill="#FF57B2"/>
<circle cx="20.5" cy="8.5" r="8" stroke="#FF57B2"/>
</svg>
